<svg xmlns="http://www.w3.org/2000/svg" width="1600" height="1200" viewBox="0 0 1600 1200">
  <!-- REVATHY DENTISTREE - Concept 04 "Golden Leaf" - full-colour master -->
  <!-- Single tooth silhouette, enlarged 1.15x, crown top at y=460 -->
  <g transform="translate(-120 -89.7) scale(1.15)">
    <path d="M755,478 L845,478 C898,478 922,508 920,556 C918,598 908,626 890,652 C870,680 858,710 853,736 C849,756 827,756 824,737 C819,700 812,672 800,664 C788,672 781,700 776,737 C773,756 751,756 747,736 C742,710 730,680 710,652 C692,626 682,598 680,556 C678,508 702,478 755,478 Z" fill="#1b4d3e"/>
  </g>
  <!-- Sprig: one stem, three leaves; the crowning leaf is antique gold -->
  <path d="M804,464 C797,404 830,360 845,320" stroke="#1b4d3e" stroke-width="13" stroke-linecap="round" fill="none"/>
  <path d="M0,0 C-26,-20 -29,-66 0,-100 C29,-66 26,-20 0,0 Z" transform="translate(808 410) rotate(-54)" fill="#1b4d3e"/>
  <path d="M0,0 C-26,-20 -29,-66 0,-100 C29,-66 26,-20 0,0 Z" transform="translate(816 386) rotate(70)" fill="#1b4d3e"/>
  <path d="M0,0 C-26,-20 -29,-66 0,-100 C29,-66 26,-20 0,0 Z" transform="translate(840 332) rotate(19) scale(1.1)" fill="#b58c44"/>
  <text x="800" y="948" font-family="Bahnschrift, Arial, sans-serif" font-size="66" font-weight="700" letter-spacing="12" fill="#1b4d3e" text-anchor="middle">REVATHY DENTISTREE</text>
  <text x="800" y="1016" font-family="Bahnschrift, Arial, sans-serif" font-size="34" font-weight="400" font-style="italic" letter-spacing="6" fill="#8a6a2e" text-anchor="middle">Growing Miles of Smiles</text>
</svg>
