<svg xmlns="http://www.w3.org/2000/svg" width="1600" height="1200" viewBox="0 0 1600 1200">
  <!-- Hidden Smile: single-colour master (#1a1a1a) -->
  <g transform="translate(-80,-60) scale(1.1)">
    <path d="M764 548 C770 635 758 686 718 732 L882 732 C842 686 830 635 836 548 Z" fill="#1a1a1a"/>
    <path d="M557.8 555.6 A151 151 0 0 1 614 292 A191 191 0 0 1 986 292 A151 151 0 0 1 1042.2 555.6 A20 20 0 0 1 1029.7 560 L570.3 560 A20 20 0 0 1 557.8 555.6 Z M655 388 Q800 580 945 388 Q800 455 655 388 Z" fill="#1a1a1a" fill-rule="evenodd"/>
    <rect x="710" y="983" width="180" height="5" fill="#1a1a1a"/>
    <text x="800" y="948" font-family="Playfair Display, Georgia, serif" font-size="76" font-weight="800" letter-spacing="10" text-anchor="middle" fill="#1a1a1a">REVATHY DENTISTREE</text>
    <text x="800" y="1052" font-family="Playfair Display, Georgia, serif" font-size="40" font-style="italic" font-weight="500" letter-spacing="1.5" text-anchor="middle" fill="#1a1a1a">Growing Miles of Smiles</text>
  </g>
</svg>
