<svg xmlns="http://www.w3.org/2000/svg" width="1600" height="1200" viewBox="200 154 1200 900">
  <!-- 10 THE CREST - one-colour version (#1a1a1a): outlined shield, solid glyph -->
  <path d="M564 200 H1036 Q1052 200 1052 216 V430 Q1052 640 800 772 Q548 640 548 430 V216 Q548 200 564 200 Z" fill="none" stroke="#1a1a1a" stroke-width="12"/>
  <path d="M590 226 H1010 Q1026 226 1026 242 V428 Q1026 618 800 738 Q574 618 574 428 V242 Q574 226 590 226 Z" fill="none" stroke="#1a1a1a" stroke-width="2.5"/>

  <g fill="#1a1a1a">
    <circle cx="800" cy="330" r="70"/>
    <circle cx="733" cy="392" r="51"/>
    <circle cx="867" cy="392" r="51"/>
    <path d="M780 373 C780 440 779 480 776 515 C771 545 764 570 758 594 C753 613 750 622 751 628 Q752 638 762 636 Q770 634 774 622 C780 605 788 596 800 588 C812 596 820 605 826 622 Q830 634 838 636 Q848 638 849 628 C850 622 847 613 842 594 C836 570 829 545 824 515 C821 480 820 440 820 373 Z"/>
  </g>

  <path d="M728 668 Q800 702 872 668" fill="none" stroke="#1a1a1a" stroke-width="12" stroke-linecap="round"/>

  <text x="800" y="944" font-family="Playfair Display, Georgia, serif" font-size="60" font-weight="800" letter-spacing="6" text-anchor="middle" fill="#1a1a1a">REVATHY DENTISTREE</text>
  <text x="800" y="1004" font-family="Playfair Display, Georgia, serif" font-size="34" font-style="italic" letter-spacing="2.5" text-anchor="middle" fill="#1a1a1a">Growing Miles of Smiles</text>
</svg>
