<svg xmlns="http://www.w3.org/2000/svg" width="1600" height="1200" viewBox="0 0 1600 1200">
  <!-- Sunrise Smile - single-colour master (#1a1a1a only) -->

  <path d="M 800 366 Q 750 311 800 256 Q 850 311 800 366 Z" fill="#1a1a1a"/>
  <path d="M 895 391.5 Q 879.2 318.8 950 296.2 Q 965.8 368.8 895 391.5 Z" fill="#1a1a1a"/>
  <path d="M 705 391.5 Q 720.8 318.8 650 296.2 Q 634.2 368.8 705 391.5 Z" fill="#1a1a1a"/>
  <path d="M 964.5 461 Q 987.2 390.2 1059.8 406 Q 1037.2 476.8 964.5 461 Z" fill="#1a1a1a"/>
  <path d="M 635.5 461 Q 612.8 390.2 540.2 406 Q 562.8 476.8 635.5 461 Z" fill="#1a1a1a"/>

  <!-- Sun cut along R564 arc (above the stroke edge) so a white channel separates
       sun from smile - keeps the mark readable as a sunrise in single colour -->
  <path d="M 652.9 526.5 A 150 150 0 0 1 947.1 526.5 A 564 564 0 0 1 652.9 526.5 Z" fill="#1a1a1a"/>

  <path d="M 490 512 A 614 614 0 0 0 1110 512" fill="none" stroke="#1a1a1a" stroke-width="52" stroke-linecap="round"/>

  <text x="800" y="858" font-family="Playfair Display, Georgia, serif" font-size="76" font-weight="800" letter-spacing="10" text-anchor="middle" fill="#1a1a1a">REVATHY DENTISTREE</text>
  <rect x="690" y="888" width="220" height="4" rx="2" fill="#1a1a1a"/>
  <text x="800" y="948" font-family="Playfair Display, Georgia, serif" font-size="40" font-style="italic" font-weight="500" letter-spacing="3" text-anchor="middle" fill="#1a1a1a">Growing Miles of Smiles</text>
</svg>
